<svg version="1.0" xmlns="http://www.w3.org/2000/svg" width="3206.000000pt" height="3206.000000pt" viewBox="0 0 3206.000000 3206.000000" preserveAspectRatio="xMidYMid meet"><g transform="translate(0.000000,3206.000000) scale(0.100000,-0.100000)" fill="#000000" stroke="none"><path d="M0 24795 l0 -7265 1080 0 1080 0 0 6185 0 6185 6185 0 6185 0 0 1080 0 1080 -7265 0 -7265 0 0 -7265z"/><path d="M14954 26751 c3 -4 -63 -11 -147 -15 -83 -4 -153 -12 -155 -17 -2 -5 -35 -9 -73 -9 -44 0 -68 -4 -64 -10 4 -6 -22 -10 -72 -10 -54 0 -73 -3 -63 -10 11 -7 -4 -10 -48 -10 -40 0 -61 -4 -57 -10 4 -6 -9 -10 -32 -10 -73 0 -172 -13 -167 -21 3 -5 -20 -9 -51 -9 -35 0 -54 -4 -50 -10 4 -6 -16 -10 -52 -10 -41 0 -54 -3 -43 -10 11 -7 -3 -10 -45 -10 -39 0 -55 -3 -46 -9 9 -6 -16 -11 -72 -16 -48 -4 -84 -11 -81 -16 3 -5 -16 -9 -41 -9 -28 0 -44 -4 -40 -10 4 -6 -10 -10 -34 -10 -23 0 -41 -4 -41 -10 0 -5 -18 -10 -40 -10 -22 0 -40 -4 -40 -9 0 -6 -32 -13 -71 -17 -45 -4 -66 -10 -57 -15 8 -6 -6 -9 -37 -9 -36 0 -46 -3 -35 -10 11 -7 3 -10 -28 -10 -26 0 -41 -4 -37 -10 4 -6 -10 -10 -34 -10 -21 0 -41 -5 -43 -10 -2 -6 -29 -14 -61 -17 -37 -4 -54 -9 -45 -14 8 -6 -3 -9 -30 -9 -26 0 -41 -4 -37 -10 4 -6 -7 -10 -24 -10 -17 0 -31 -4 -31 -9 0 -4 -21 -11 -47 -14 -26 -3 -49 -10 -51 -16 -2 -6 -17 -11 -33 -11 -16 0 -29 -4 -29 -10 0 -5 -16 -10 -36 -10 -21 0 -33 -4 -29 -10 4 -6 -8 -10 -30 -10 -20 0 -34 -4 -31 -9 3 -5 -13 -11 -36 -14 -24 -3 -44 -11 -46 -16 -2 -6 -17 -11 -33 -11 -18 0 -28 -4 -24 -10 4 -6 -7 -10 -24 -10 -17 0 -31 -4 -31 -10 0 -5 -14 -10 -31 -10 -16 0 -28 -4 -25 -9 3 -5 -14 -12 -39 -15 -25 -4 -45 -11 -45 -17 0 -5 -15 -9 -32 -9 -25 0 -29 -3 -18 -10 11 -7 7 -10 -18 -10 -20 0 -31 -4 -27 -10 4 -6 -7 -10 -24 -10 -17 0 -31 -4 -31 -10 0 -5 -18 -13 -40 -16 -22 -4 -37 -10 -34 -15 3 -5 -9 -9 -26 -9 -18 0 -29 -4 -25 -10 4 -6 -7 -10 -25 -10 -18 0 -29 -4 -25 -10 4 -6 -5 -10 -19 -10 -14 0 -26 -4 -26 -10 0 -5 -18 -13 -40 -16 -22 -4 -37 -10 -34 -15 3 -5 -7 -9 -21 -9 -15 0 -24 -4 -20 -10 4 -6 -5 -10 -19 -10 -14 0 -26 -4 -26 -10 0 -5 -9 -10 -21 -10 -11 0 -27 -7 -35 -15 -9 -8 -27 -15 -40 -15 -14 0 -22 -4 -19 -10 4 -6 -5 -10 -20 -10 -15 0 -24 -4 -20 -10 4 -6 -5 -10 -20 -10 -15 0 -24 -4 -20 -10 5 -8 -29 -15 -38 -7 -2 1 -11 -6 -21 -15 -10 -10 -29 -18 -44 -18 -21 0 -24 -2 -12 -10 11 -7 6 -10 -20 -10 -26 0 -31 -3 -20 -10 12 -8 9 -10 -12 -10 -16 0 -28 -4 -28 -10 0 -5 -9 -10 -20 -10 -11 0 -20 -5 -20 -11 0 -5 -4 -7 -10 -4 -5 3 -10 1 -10 -4 0 -6 -12 -11 -26 -11 -14 0 -23 -4 -19 -10 3 -5 -3 -10 -14 -10 -12 0 -21 -4 -21 -10 0 -5 -9 -10 -20 -10 -11 0 -20 -4 -20 -10 0 -5 -9 -10 -19 -10 -11 0 -26 -7 -35 -15 -8 -8 -22 -15 -31 -15 -9 0 -13 -4 -10 -10 3 -5 -3 -10 -14 -10 -12 0 -21 -4 -21 -10 0 -5 -7 -10 -15 -10 -8 0 -15 -4 -15 -10 0 -5 -16 -12 -35 -16 -19 -3 -35 -10 -35 -15 0 -5 -9 -9 -21 -9 -11 0 -17 -4 -14 -10 3 -5 -3 -10 -15 -10 -12 0 -18 -4 -15 -10 3 -5 -1 -10 -10 -10 -9 0 -23 -7 -31 -15 -9 -8 -24 -15 -35 -15 -10 0 -19 -4 -19 -10 0 -5 -9 -10 -21 -10 -11 0 -17 -4 -14 -10 4 -6 -6 -10 -22 -10 -22 0 -25 -2 -13 -10 13 -8 12 -10 -3 -10 -10 0 -25 -7 -33 -15 -9 -8 -24 -15 -35 -15 -11 0 -17 -4 -14 -10 3 -5 -3 -10 -15 -10 -12 0 -18 -4 -15 -10 3 -5 -3 -10 -14 -10 -12 0 -21 -4 -21 -10 0 -5 -9 -10 -19 -10 -10 0 -21 -7 -25 -15 -3 -8 -15 -15 -26 -15 -12 0 -18 -4 -15 -10 3 -5 -3 -10 -15 -10 -12 0 -18 -4 -15 -10 3 -5 -1 -10 -9 -10 -9 0 -16 -4 -16 -10 0 -5 -9 -10 -20 -10 -11 0 -20 -4 -20 -10 0 -5 -11 -12 -25 -16 -14 -3 -25 -10 -25 -15 0 -5 -10 -9 -22 -9 -19 0 -20 -2 -8 -11 12 -8 9 -10 -12 -6 -19 3 -25 0 -21 -10 3 -7 -1 -13 -10 -13 -8 0 -20 -7 -27 -15 -7 -8 -22 -15 -34 -15 -17 0 -18 -2 -6 -10 12 -8 10 -10 -8 -10 -13 0 -20 -4 -17 -10 3 -5 -3 -10 -14 -10 -12 0 -21 -4 -21 -10 0 -5 -11 -12 -25 -16 -14 -3 -22 -10 -19 -15 3 -5 -2 -9 -10 -9 -9 0 -16 -4 -16 -10 0 -5 -9 -10 -21 -10 -11 0 -17 -4 -14 -10 3 -5 -1 -10 -9 -10 -9 0 -16 -4 -16 -10 0 -5 -11 -12 -25 -16 -14 -3 -22 -10 -19 -15 3 -5 -2 -9 -10 -9 -9 0 -16 -4 -16 -10 0 -5 -5 -10 -10 -10 -6 0 -23 -12 -37 -26 -18 -18 -33 -24 -49 -21 -20 3 -22 2 -13 -9 9 -11 8 -14 -5 -14 -10 0 -14 -4 -11 -10 3 -5 -2 -10 -12 -10 -10 0 -25 -9 -33 -19 -7 -11 -17 -18 -22 -15 -4 3 -8 0 -8 -5 0 -6 -6 -11 -13 -11 -7 0 -19 -9 -27 -20 -8 -11 -23 -20 -34 -20 -11 0 -16 -3 -13 -6 8 -8 -36 -44 -53 -44 -6 0 -8 -4 -5 -10 3 -6 -4 -10 -16 -10 -12 0 -20 -3 -16 -6 8 -9 -18 -34 -36 -34 -8 0 -18 -7 -21 -16 -4 -11 -13 -14 -27 -11 -16 4 -18 3 -8 -9 9 -11 8 -14 -5 -14 -10 0 -14 -4 -11 -10 3 -5 -1 -10 -10 -10 -10 0 -26 -11 -37 -25 -11 -14 -26 -25 -34 -25 -8 0 -12 -4 -9 -10 3 -5 -3 -10 -15 -10 -12 0 -18 -4 -15 -10 3 -5 1 -10 -5 -10 -6 0 -21 -11 -34 -25 -13 -14 -32 -25 -42 -25 -16 0 -17 -2 -4 -10 12 -8 10 -10 -8 -10 -13 0 -21 -4 -18 -8 3 -5 -4 -15 -16 -23 -11 -8 -31 -24 -44 -36 -13 -13 -26 -23 -29 -23 -3 0 -17 -12 -32 -26 -14 -14 -32 -23 -40 -20 -8 3 -11 1 -8 -4 7 -12 -18 -40 -35 -40 -6 0 -8 -4 -5 -10 3 -5 1 -10 -5 -10 -6 0 -22 -12 -35 -26 -13 -14 -29 -23 -34 -19 -7 4 -8 0 -4 -11 5 -14 3 -16 -11 -11 -10 4 -15 3 -11 -3 4 -6 -1 -17 -9 -26 -9 -8 -16 -12 -16 -8 0 4 -8 -3 -19 -14 -10 -12 -24 -22 -30 -22 -7 0 -9 -4 -6 -10 3 -5 1 -10 -5 -10 -7 0 -21 -12 -32 -26 -11 -14 -26 -23 -34 -20 -9 3 -11 0 -7 -11 5 -12 2 -15 -10 -10 -12 4 -14 2 -10 -10 5 -13 2 -15 -11 -10 -11 4 -15 3 -10 -4 7 -12 -98 -119 -117 -119 -7 0 -9 -3 -6 -6 6 -7 -32 -46 -71 -73 -12 -8 -19 -18 -16 -23 3 -4 -5 -8 -18 -8 -15 0 -19 -3 -11 -8 9 -6 7 -12 -9 -22 -11 -8 -26 -21 -32 -28 -68 -79 -187 -193 -195 -188 -7 5 -8 1 -4 -10 5 -13 3 -16 -10 -11 -12 4 -14 2 -10 -10 5 -12 2 -15 -10 -10 -11 4 -14 2 -11 -7 3 -7 -16 -31 -41 -53 -25 -23 -45 -46 -45 -52 0 -6 -5 -11 -12 -11 -6 0 -9 -3 -5 -6 9 -9 -21 -36 -33 -29 -6 4 -7 -1 -3 -11 5 -13 2 -16 -9 -12 -9 4 -15 1 -14 -6 2 -18 -92 -118 -104 -111 -5 3 -7 0 -5 -8 3 -7 -4 -24 -15 -38 -11 -13 -33 -39 -48 -57 -15 -19 -37 -44 -49 -57 -13 -13 -23 -27 -23 -30 0 -3 -18 -24 -40 -47 -22 -24 -40 -46 -40 -50 0 -3 -18 -26 -40 -50 -22 -23 -40 -46 -40 -51 0 -4 -13 -21 -30 -39 -16 -17 -30 -35 -30 -39 0 -4 -11 -19 -25 -33 -14 -14 -25 -28 -25 -31 0 -3 -11 -17 -25 -31 -14 -14 -25 -29 -25 -33 0 -4 -13 -22 -30 -39 -16 -18 -30 -36 -30 -42 0 -5 -5 -10 -12 -10 -6 0 -9 -3 -5 -6 3 -3 -3 -15 -14 -27 -10 -11 -19 -27 -19 -34 0 -8 -4 -11 -10 -8 -6 3 -10 -1 -10 -9 0 -9 -4 -16 -10 -16 -5 0 -10 -7 -10 -15 0 -8 -5 -15 -11 -15 -5 0 -8 -4 -5 -8 3 -5 -4 -15 -15 -22 -10 -8 -19 -19 -19 -24 0 -5 -8 -16 -17 -25 -10 -9 -26 -33 -37 -53 -10 -20 -27 -46 -37 -57 -11 -11 -19 -25 -19 -31 0 -5 -4 -10 -8 -10 -5 0 -17 -18 -28 -40 -10 -22 -22 -40 -26 -40 -5 0 -8 -5 -8 -11 0 -7 -8 -19 -17 -28 -10 -9 -27 -34 -38 -56 -11 -22 -28 -47 -37 -56 -10 -9 -18 -21 -18 -28 0 -6 -5 -11 -10 -11 -6 0 -10 -3 -9 -7 2 -16 -14 -53 -22 -53 -5 0 -9 -6 -9 -13 0 -7 -9 -19 -20 -27 -11 -8 -20 -20 -20 -26 0 -17 -33 -74 -42 -74 -5 0 -8 -9 -8 -20 0 -11 -4 -20 -10 -20 -5 0 -10 -7 -10 -15 0 -8 -3 -15 -7 -15 -5 0 -17 -20 -28 -45 -11 -25 -23 -45 -27 -45 -5 0 -8 -7 -8 -16 0 -8 -4 -12 -10 -9 -6 3 -10 -3 -10 -14 0 -12 -4 -21 -8 -21 -4 0 -16 -22 -27 -50 -11 -27 -23 -50 -27 -50 -4 0 -8 -7 -8 -16 0 -8 -4 -12 -10 -9 -6 3 -10 -3 -10 -14 0 -11 -4 -22 -9 -26 -5 -3 -12 -19 -16 -35 -4 -17 -11 -30 -16 -30 -5 0 -9 -7 -9 -15 0 -8 -4 -15 -10 -15 -5 0 -10 -9 -10 -20 0 -11 -4 -20 -10 -20 -5 0 -10 -7 -10 -15 0 -8 -4 -15 -10 -15 -5 0 -10 -7 -10 -15 0 -17 -51 -118 -62 -123 -5 -2 -8 -12 -8 -23 0 -10 -5 -19 -11 -19 -5 0 -8 -4 -5 -8 3 -5 -4 -23 -15 -40 -10 -18 -19 -39 -19 -47 0 -8 -4 -15 -10 -15 -5 0 -10 -10 -10 -22 0 -12 -3 -18 -7 -15 -6 7 -29 -44 -40 -90 -3 -13 -9 -23 -14 -23 -5 0 -9 -9 -9 -21 0 -11 -4 -17 -10 -14 -6 3 -10 -3 -10 -14 0 -12 -4 -21 -10 -21 -5 0 -10 -9 -10 -20 0 -22 -50 -133 -62 -138 -4 -2 -8 -15 -8 -28 0 -13 -4 -24 -10 -24 -5 0 -10 -7 -10 -16 0 -15 -20 -66 -41 -106 -5 -10 -9 -25 -9 -33 0 -8 -4 -15 -10 -15 -5 0 -10 -12 -10 -26 0 -14 -4 -23 -10 -19 -6 3 -10 -4 -10 -17 0 -13 -7 -36 -15 -52 -8 -15 -15 -37 -15 -47 0 -11 -4 -19 -10 -19 -5 0 -10 -12 -10 -26 0 -14 -4 -23 -10 -19 -6 4 -10 -5 -10 -19 0 -14 -4 -26 -9 -26 -5 0 -12 -20 -15 -45 -4 -24 -11 -47 -17 -50 -5 -4 -9 -15 -9 -26 0 -10 -4 -19 -10 -19 -5 0 -10 -14 -10 -31 0 -17 -4 -28 -10 -24 -6 4 -10 -7 -10 -24 0 -17 -4 -31 -9 -31 -5 0 -12 -20 -15 -45 -4 -24 -11 -47 -17 -50 -5 -4 -9 -17 -9 -31 0 -13 -4 -24 -10 -24 -5 0 -10 -13 -10 -30 0 -16 -4 -30 -10 -30 -5 0 -10 -10 -10 -23 0 -13 -3 -27 -7 -31 -5 -4 -8 -11 -9 -14 -8 -54 -18 -92 -25 -92 -5 0 -9 -13 -9 -30 0 -16 -4 -30 -10 -30 -5 0 -10 -16 -10 -36 0 -21 -4 -33 -10 -29 -6 4 -10 -7 -10 -27 -1 -18 -7 -51 -15 -73 -8 -22 -15 -50 -15 -62 0 -13 -4 -23 -10 -23 -5 0 -10 -16 -10 -35 0 -19 -4 -35 -10 -35 -5 0 -10 -16 -10 -36 0 -19 -4 -33 -9 -30 -5 3 -12 -23 -16 -59 -3 -36 -11 -67 -16 -70 -5 -4 -9 -21 -9 -40 0 -19 -4 -37 -10 -40 -5 -3 -10 -22 -10 -41 0 -21 -4 -33 -10 -29 -6 4 -10 -12 -10 -39 0 -25 -4 -46 -9 -46 -5 0 -12 -36 -16 -80 -4 -44 -11 -80 -16 -80 -5 0 -9 -20 -9 -45 0 -25 -4 -45 -10 -45 -5 0 -10 -20 -10 -45 0 -25 -4 -45 -10 -45 -5 0 -10 -23 -10 -51 0 -27 -4 -48 -9 -45 -5 3 -12 -41 -16 -99 -4 -58 -11 -108 -16 -111 -5 -3 -9 -27 -9 -55 0 -27 -4 -49 -10 -49 -6 0 -10 -28 -10 -65 0 -37 -4 -65 -10 -65 -6 0 -10 -28 -10 -65 0 -36 -4 -65 -9 -65 -5 0 -12 -70 -16 -155 -4 -85 -11 -158 -16 -161 -5 -3 -9 -50 -9 -105 0 -59 -4 -99 -10 -99 -6 0 -10 -54 -10 -142 0 -96 -3 -138 -10 -128 -6 10 -10 -198 -10 -595 1 -509 3 -607 14 -592 7 9 17 17 22 17 5 0 39 -20 76 -44 37 -24 85 -47 105 -51 54 -9 292 -79 398 -115 437 -152 678 -296 755 -453 45 -93 60 -164 70 -341 17 -284 24 -329 66 -397 45 -72 92 -91 269 -109 159 -16 249 -47 518 -181 314 -156 394 -181 612 -193 338 -19 531 -49 794 -122 389 -109 652 -258 751 -424 11 -18 14 -54 14 -130 -1 -90 -6 -118 -33 -198 -62 -182 -153 -350 -391 -723 -211 -329 -241 -416 -325 -919 -56 -338 -104 -519 -193 -730 -122 -288 -299 -510 -407 -510 -159 0 -473 -219 -612 -427 -69 -103 -86 -143 -72 -170 7 -13 16 -23 21 -23 4 0 8 -5 8 -10 0 -6 10 -22 23 -35 12 -13 34 -38 49 -57 15 -18 37 -44 48 -57 11 -14 18 -31 15 -38 -2 -8 0 -11 5 -8 13 8 111 -96 105 -112 -2 -8 2 -10 12 -6 13 5 15 2 10 -11 -4 -10 -3 -15 3 -11 6 4 17 -1 26 -9 8 -9 13 -16 10 -16 -3 0 23 -30 59 -67 36 -38 63 -74 60 -81 -3 -8 0 -10 6 -6 6 4 54 -39 110 -97 55 -57 104 -108 109 -114 14 -13 79 -78 88 -87 4 -4 54 -52 111 -107 58 -56 101 -104 97 -110 -4 -6 -2 -9 6 -6 7 3 43 -24 81 -60 37 -36 67 -62 67 -59 0 3 7 -2 16 -10 8 -9 13 -20 9 -26 -4 -6 1 -7 11 -3 13 5 16 3 11 -10 -4 -10 -2 -14 6 -12 16 6 120 -92 112 -105 -3 -5 0 -7 8 -5 7 3 24 -4 38 -15 13 -11 39 -33 57 -48 19 -15 44 -37 57 -50 13 -12 27 -22 30 -22 3 0 16 -9 28 -21 12 -12 38 -33 57 -47 19 -15 51 -42 70 -59 19 -18 38 -33 43 -33 4 0 21 -14 39 -30 17 -17 35 -30 39 -30 4 0 19 -11 33 -25 14 -14 30 -25 36 -25 5 0 10 -3 10 -7 0 -5 17 -19 37 -33 20 -14 47 -35 59 -48 13 -12 28 -22 34 -22 5 0 10 -5 10 -11 0 -5 4 -8 9 -5 4 3 16 -3 26 -14 10 -11 24 -20 32 -20 8 0 11 -4 8 -10 -3 -6 1 -10 9 -10 9 0 16 -4 16 -10 0 -5 7 -10 15 -10 8 0 25 -11 39 -25 14 -14 30 -25 36 -25 5 0 10 -4 10 -10 0 -5 7 -10 15 -10 8 0 15 -3 15 -7 0 -5 23 -21 50 -38 28 -16 50 -33 50 -37 0 -4 7 -8 15 -8 8 0 15 -4 15 -8 0 -5 18 -17 40 -28 22 -10 40 -22 40 -26 0 -5 5 -8 10 -8 6 0 19 -8 30 -17 10 -10 36 -27 57 -38 21 -11 45 -27 53 -35 8 -8 34 -24 57 -35 24 -11 43 -23 43 -27 0 -5 7 -8 15 -8 8 0 15 -4 15 -10 0 -5 7 -10 16 -10 8 0 12 -4 9 -10 -3 -5 1 -10 10 -10 8 0 33 -11 55 -25 22 -14 44 -25 50 -25 5 0 10 -4 10 -10 0 -5 7 -10 15 -10 8 0 15 -3 15 -7 0 -5 20 -17 45 -28 25 -11 45 -23 45 -27 0 -5 7 -8 15 -8 8 0 15 -4 15 -10 0 -5 7 -10 15 -10 8 0 15 -4 15 -10 0 -5 7 -10 16 -10 18 0 77 -31 82 -42 2 -5 10 -8 18 -8 8 0 14 -3 14 -8 0 -8 73 -42 90 -42 6 0 10 -4 10 -10 0 -5 7 -10 15 -10 8 0 15 -4 15 -10 0 -5 9 -10 20 -10 11 0 20 -4 20 -10 0 -5 7 -10 15 -10 8 0 15 -4 15 -10 0 -5 7 -10 15 -10 17 0 118 -51 123 -62 2 -5 12 -8 23 -8 10 0 19 -5 19 -11 0 -5 4 -8 8 -5 5 3 23 -4 40 -15 18 -10 39 -19 47 -19 8 0 15 -4 15 -10 0 -5 10 -10 22 -10 12 0 18 -3 15 -7 -7 -6 44 -29 91 -40 12 -3 22 -9 22 -14 0 -5 9 -9 20 -9 11 0 20 -4 20 -10 0 -5 9 -10 20 -10 11 0 20 -4 20 -10 0 -5 7 -10 15 -10 8 0 38 -11 67 -25 28 -14 58 -25 65 -25 8 0 11 -4 8 -10 -4 -6 5 -10 19 -10 14 0 26 -4 26 -10 0 -5 7 -10 16 -10 15 0 66 -20 106 -41 10 -5 25 -9 33 -9 8 0 15 -4 15 -10 0 -5 12 -10 26 -10 14 0 23 -4 19 -10 -3 -6 4 -10 17 -10 13 0 36 -7 52 -15 15 -8 37 -15 47 -15 11 0 19 -4 19 -10 0 -5 12 -10 26 -10 14 0 23 -4 19 -10 -4 -6 5 -10 19 -10 14 0 26 -4 26 -9 0 -5 18 -11 40 -15 23 -3 50 -11 60 -16 11 -6 29 -14 40 -20 11 -5 29 -10 40 -10 12 0 18 -4 15 -10 -4 -6 7 -10 24 -10 17 0 31 -4 31 -9 0 -5 20 -12 45 -15 24 -4 47 -11 50 -17 4 -5 17 -9 31 -9 13 0 24 -4 24 -10 0 -5 14 -10 30 -10 17 0 30 -4 30 -10 0 -5 14 -10 30 -10 17 0 30 -4 30 -9 0 -5 23 -12 50 -16 28 -4 50 -11 50 -16 0 -5 14 -9 30 -9 17 0 30 -4 30 -10 0 -5 16 -10 36 -10 21 0 33 -4 29 -10 -4 -6 7 -10 27 -10 18 -1 51 -7 73 -15 22 -8 50 -15 63 -15 12 0 22 -4 22 -10 0 -5 16 -10 35 -10 19 0 35 -4 35 -10 0 -5 16 -10 36 -10 19 0 33 -4 30 -9 -3 -5 23 -12 59 -16 36 -3 67 -11 70 -16 4 -5 21 -9 40 -9 19 0 37 -4 40 -10 3 -5 22 -10 41 -10 19 0 34 -4 34 -10 0 -5 18 -10 40 -10 22 0 40 -4 40 -9 0 -5 36 -12 80 -16 44 -4 80 -11 80 -16 0 -5 20 -9 45 -9 25 0 45 -4 45 -10 0 -5 20 -10 45 -10 25 0 45 -4 45 -10 0 -5 23 -10 51 -10 27 0 48 -4 45 -9 -3 -5 41 -12 99 -16 58 -4 108 -11 111 -16 3 -5 27 -9 55 -9 27 0 49 -4 49 -10 0 -6 28 -10 65 -10 37 0 65 -4 65 -10 0 -6 28 -10 65 -10 36 0 65 -4 65 -9 0 -5 70 -12 155 -16 85 -4 158 -11 161 -16 3 -5 50 -9 105 -9 59 0 99 -4 99 -10 0 -6 54 -10 143 -10 95 0 137 -3 127 -10 -10 -6 196 -10 590 -10 394 0 600 4 590 10 -10 7 32 10 128 10 88 0 142 4 142 10 0 6 40 10 99 10 55 0 102 4 105 9 3 5 76 12 161 16 85 4 155 11 155 16 0 5 29 9 65 9 37 0 65 4 65 10 0 6 28 10 65 10 37 0 65 4 65 10 0 6 22 10 49 10 28 0 52 4 55 9 3 5 53 12 111 16 58 4 102 11 99 16 -3 5 18 9 45 9 28 0 51 5 51 10 0 6 20 10 45 10 25 0 45 5 45 10 0 6 20 10 45 10 25 0 45 4 45 9 0 5 36 12 80 16 44 4 80 11 80 16 0 5 21 9 46 9 27 0 43 4 39 10 -4 6 8 10 29 10 19 0 38 5 41 10 3 6 21 10 40 10 19 0 36 4 40 9 3 5 34 13 70 16 36 4 62 11 59 16 -3 5 11 9 30 9 20 0 36 5 36 10 0 6 16 10 35 10 19 0 35 5 35 10 0 6 10 10 23 10 12 0 40 7 62 15 22 8 55 14 73 15 20 0 31 4 27 10 -4 6 8 10 29 10 20 0 36 5 36 10 0 6 14 10 30 10 17 0 30 4 30 9 0 7 38 17 92 25 3 1 10 4 14 8 4 5 18 8 31 8 13 0 23 5 23 10 0 6 14 10 30 10 17 0 30 5 30 10 0 6 11 10 24 10 14 0 27 4 31 9 3 6 26 13 50 17 25 3 45 10 45 15 0 5 14 9 31 9 17 0 28 4 24 10 -4 6 7 10 24 10 17 0 31 5 31 10 0 6 9 10 19 10 11 0 22 4 26 9 3 6 26 13 50 17 25 3 45 10 45 15 0 5 12 9 26 9 14 0 23 4 19 10 -4 6 5 10 19 10 14 0 26 5 26 10 0 6 8 10 19 10 10 0 32 7 47 15 16 8 39 15 52 15 13 0 20 4 17 10 -4 6 5 10 19 10 14 0 26 5 26 10 0 6 7 10 15 10 8 0 23 4 33 9 40 21 91 41 106 41 9 0 16 5 16 10 0 6 11 10 24 10 13 0 26 4 28 8 5 12 116 62 138 62 11 0 20 5 20 10 0 6 9 10 21 10 11 0 17 4 14 10 -3 6 3 10 14 10 12 0 21 4 21 9 0 5 10 11 23 14 46 11 97 34 90 40 -3 4 3 7 15 7 12 0 22 5 22 10 0 6 7 10 15 10 8 0 29 9 47 19 17 11 35 18 40 15 4 -3 8 0 8 5 0 6 9 11 19 11 11 0 21 3 23 8 5 11 106 62 123 62 8 0 15 5 15 10 0 6 7 10 15 10 8 0 15 5 15 10 0 6 9 10 20 10 11 0 20 5 20 10 0 6 7 10 15 10 8 0 15 4 15 9 0 5 13 12 30 16 16 4 32 11 35 16 4 5 15 9 26 9 11 0 17 4 14 10 -3 5 1 10 9 10 9 0 16 4 16 8 0 4 23 16 50 27 28 11 50 23 50 27 0 4 9 8 21 8 11 0 17 5 14 10 -3 6 1 10 9 10 9 0 16 3 16 8 0 4 20 16 45 27 25 11 45 23 45 28 0 4 7 7 15 7 8 0 15 5 15 10 0 6 9 10 20 10 11 0 20 3 20 8 0 9 57 42 74 42 6 0 18 9 26 20 8 11 20 20 27 20 7 0 13 4 13 9 0 8 37 24 53 22 4 -1 7 4 7 9 0 6 5 10 11 10 7 0 19 8 28 18 9 9 34 26 56 37 22 11 47 28 56 38 9 9 21 17 28 17 6 0 11 3 11 8 0 4 18 16 40 26 22 11 40 23 40 28 0 4 5 8 10 8 6 0 20 8 31 19 11 10 37 27 57 37 20 11 44 27 53 37 9 9 20 17 25 17 5 0 16 9 24 19 7 11 17 18 22 15 4 -3 8 0 8 5 0 6 7 11 15 11 8 0 15 5 15 10 0 6 7 10 16 10 8 0 12 5 9 10 -3 6 0 10 8 10 7 0 23 9 34 19 12 11 24 17 27 14 3 -4 6 -1 6 5 0 7 5 12 10 12 6 0 24 13 42 30 17 16 35 30 39 30 4 0 19 11 33 25 14 14 28 25 31 25 3 0 17 11 31 25 14 14 29 25 33 25 4 0 22 14 39 30 18 17 35 30 39 30 5 0 28 18 51 40 24 22 47 40 50 40 4 0 26 18 50 40 23 22 44 40 47 40 3 0 17 10 30 22 13 13 38 35 57 50 18 15 44 37 57 48 14 11 31 18 38 15 8 -2 11 0 8 5 -7 12 93 106 111 104 7 -1 10 5 6 14 -4 11 -1 14 12 9 10 -4 15 -3 11 3 -7 12 20 42 29 33 3 -4 6 -1 6 5 0 7 5 12 11 12 6 0 29 20 52 45 22 25 46 44 53 41 9 -3 11 0 7 11 -5 12 -2 15 10 10 12 -4 14 -2 10 10 -5 13 -2 15 11 10 11 -4 15 -3 10 4 -5 8 109 127 188 195 7 6 20 21 28 32 10 16 16 18 22 9 5 -8 8 -4 8 11 0 13 4 21 8 18 5 -3 15 4 23 16 27 39 66 77 73 71 3 -3 6 -1 6 6 0 19 107 124 119 117 7 -5 8 -1 4 10 -5 13 -3 16 10 11 12 -4 14 -2 10 10 -5 12 -2 15 10 10 11 -4 14 -2 11 7 -3 8 6 23 20 34 14 11 26 25 26 32 0 6 5 8 10 5 6 -3 10 -1 10 6 0 6 10 20 22 30 11 11 18 19 14 19 -4 0 0 7 8 16 9 8 20 13 26 9 6 -4 7 1 3 11 -5 14 -3 16 11 11 11 -4 15 -3 11 4 -4 5 5 21 19 34 14 13 26 29 26 35 0 6 5 8 10 5 6 -3 10 -1 10 5 0 17 28 42 40 35 5 -3 7 0 4 8 -3 8 6 26 20 40 14 15 26 29 26 32 0 3 10 16 23 29 12 13 28 33 36 44 8 12 18 19 23 16 4 -3 8 5 8 18 0 18 2 20 10 8 8 -13 10 -12 10 4 0 10 11 29 25 42 14 13 25 28 25 34 0 6 5 8 10 5 6 -3 10 3 10 15 0 12 5 18 10 15 6 -3 10 1 10 9 0 8 11 23 25 34 14 11 25 27 25 37 0 9 5 13 10 10 6 -3 10 1 10 11 0 13 3 14 14 5 12 -10 13 -8 9 8 -3 14 0 23 11 27 9 3 16 13 16 21 0 18 25 44 34 36 3 -4 6 4 6 16 0 12 4 19 10 16 6 -3 10 -1 10 5 0 17 36 61 44 53 3 -3 6 2 6 13 0 11 9 26 20 34 11 8 20 20 20 27 0 7 5 13 11 13 5 0 8 4 5 8 -3 5 4 15 15 22 10 8 19 23 19 33 0 10 5 15 10 12 6 -3 10 1 10 11 0 13 3 14 14 5 11 -9 12 -7 9 13 -3 16 3 31 21 49 14 14 26 31 26 37 0 5 5 10 10 10 6 0 10 7 10 16 0 8 4 13 9 10 5 -3 12 5 15 19 4 14 11 25 16 25 6 0 10 7 10 16 0 8 5 12 10 9 6 -3 10 3 10 14 0 12 5 21 10 21 6 0 10 7 10 16 0 8 4 13 9 10 5 -3 12 5 15 19 4 14 11 25 16 25 6 0 10 9 10 21 0 11 5 17 10 14 6 -3 10 4 10 17 0 18 2 20 10 8 8 -12 10 -11 10 6 0 12 7 27 15 34 8 7 15 19 15 27 0 9 6 13 13 10 10 -4 13 2 10 21 -4 21 -2 24 6 12 9 -12 11 -11 11 8 0 12 4 22 9 22 5 0 12 11 15 25 4 14 11 25 16 25 6 0 10 9 10 20 0 11 5 20 10 20 6 0 10 7 10 16 0 8 5 12 10 9 6 -3 10 3 10 15 0 12 5 18 10 15 6 -3 10 3 10 15 0 11 7 23 15 26 8 4 15 15 15 25 0 10 5 19 10 19 6 0 10 9 10 21 0 11 5 17 10 14 6 -3 10 3 10 15 0 12 5 18 10 15 6 -3 10 3 10 14 0 11 7 26 15 35 8 8 15 23 15 33 0 15 2 16 10 3 8 -12 10 -9 10 13 0 16 4 26 10 22 6 -3 10 3 10 14 0 12 5 21 10 21 6 0 10 9 10 19 0 11 7 26 15 35 8 8 15 22 15 31 0 9 5 13 10 10 6 -3 10 3 10 15 0 12 5 18 10 15 6 -3 10 3 10 14 0 12 4 21 9 21 5 0 12 16 15 35 4 19 11 35 16 35 6 0 10 7 10 15 0 8 5 15 10 15 6 0 10 9 10 21 0 11 5 17 10 14 6 -3 10 1 10 10 0 9 7 23 15 31 8 9 15 24 15 35 0 10 5 19 10 19 6 0 10 9 10 20 0 11 5 20 10 20 6 0 10 9 10 21 0 11 5 17 10 14 6 -4 10 5 10 19 0 14 5 26 11 26 5 0 7 4 4 10 -3 6 -1 10 4 10 6 0 11 9 11 20 0 11 5 20 10 20 6 0 10 12 10 28 0 21 2 24 10 12 7 -11 10 -6 10 20 0 26 3 31 10 20 8 -12 10 -9 10 12 0 15 7 33 15 42 9 8 16 18 15 21 -2 31 2 45 10 40 6 -4 10 5 10 20 0 15 4 24 10 20 6 -4 10 5 10 20 0 15 4 24 10 20 6 -3 10 5 10 19 0 13 7 31 15 40 8 8 15 24 15 35 0 12 5 21 10 21 6 0 10 12 10 26 0 14 4 23 10 19 6 -4 10 5 10 20 0 14 4 24 9 21 5 -3 11 12 15 34 3 22 11 40 16 40 6 0 10 12 10 26 0 14 4 23 10 19 6 -4 10 7 10 25 0 18 4 29 10 25 6 -4 10 7 10 25 0 17 4 29 9 26 5 -3 11 12 15 34 3 22 11 40 16 40 6 0 10 14 10 31 0 17 4 28 10 24 6 -4 10 7 10 27 0 25 3 29 10 18 7 -11 10 -7 10 18 0 17 4 32 9 32 6 0 13 20 17 45 3 25 10 42 15 39 5 -3 9 9 9 25 0 17 5 31 10 31 6 0 10 14 10 31 0 17 4 28 10 24 6 -4 10 6 10 24 0 16 5 31 11 33 5 2 13 22 16 46 3 23 9 39 14 36 5 -3 9 11 9 31 0 22 4 34 10 30 6 -4 10 8 10 29 0 20 5 36 10 36 6 0 10 13 10 29 0 16 5 31 11 33 6 2 13 25 16 51 3 26 10 47 14 47 5 0 9 14 9 31 0 17 4 28 10 24 6 -4 10 11 10 37 0 27 3 38 9 30 5 -9 10 8 14 45 3 32 11 59 17 61 5 2 10 22 10 43 0 24 4 38 10 34 6 -4 10 11 10 37 0 31 3 39 10 28 7 -11 10 -1 10 35 0 31 3 45 9 37 5 -9 11 12 15 57 4 39 11 71 17 71 5 0 9 18 9 40 0 22 5 40 10 40 6 0 10 18 10 41 0 24 4 38 10 34 6 -4 10 12 10 40 0 25 4 44 9 41 5 -3 12 33 16 81 5 56 10 81 16 72 6 -9 9 7 9 46 0 42 3 56 10 45 7 -11 10 2 10 43 0 36 4 56 10 52 6 -4 10 15 10 50 0 31 4 54 9 51 8 -5 21 94 21 167 0 23 4 36 10 32 6 -4 10 17 10 57 0 44 3 59 10 48 7 -10 10 9 10 63 0 50 4 76 10 72 6 -4 10 20 10 64 0 38 4 71 9 73 5 2 13 72 17 155 4 84 11 150 15 147 5 -3 9 46 9 108 0 77 3 108 10 98 7 -10 10 36 11 140 0 96 4 147 9 135 5 -11 9 243 9 595 0 352 -4 606 -9 595 -5 -12 -9 36 -9 128 -1 96 -5 146 -11 142 -6 -4 -10 33 -10 105 0 61 -4 109 -9 106 -4 -3 -11 63 -15 147 -4 84 -11 154 -17 155 -5 2 -9 38 -9 80 0 54 -3 72 -10 62 -7 -10 -10 10 -10 65 0 55 -3 75 -10 65 -7 -11 -10 4 -10 48 0 40 -4 61 -10 57 -6 -4 -10 9 -10 32 0 73 -13 172 -21 167 -5 -3 -9 23 -9 58 0 44 -3 59 -10 48 -7 -11 -10 3 -10 45 0 42 -3 56 -10 45 -7 -11 -10 3 -10 45 0 39 -3 55 -9 46 -6 -9 -11 16 -16 72 -4 48 -11 84 -16 81 -5 -3 -9 16 -9 41 0 28 -4 44 -10 40 -6 -4 -10 10 -10 34 0 23 -4 41 -10 41 -5 0 -10 18 -10 40 0 22 -4 40 -9 40 -6 0 -13 32 -17 71 -4 45 -10 66 -15 57 -6 -8 -9 6 -9 37 0 36 -3 46 -10 35 -7 -11 -10 -1 -10 35 0 36 -3 46 -10 35 -7 -11 -10 -4 -10 27 0 23 -5 43 -10 45 -6 2 -14 29 -17 61 -4 37 -9 54 -14 45 -6 -8 -9 3 -9 30 0 26 -4 41 -10 37 -6 -4 -10 7 -10 24 0 17 -4 31 -10 31 -5 0 -10 15 -10 34 0 19 -5 38 -10 41 -6 4 -8 10 -5 15 3 5 1 11 -5 15 -5 3 -10 17 -10 31 0 13 -4 24 -10 24 -5 0 -10 16 -10 36 0 21 -4 33 -10 29 -6 -4 -10 8 -10 30 0 20 -4 34 -9 31 -5 -3 -11 13 -14 36 -3 24 -11 44 -16 46 -6 2 -11 17 -11 33 0 18 -4 28 -10 24 -6 -4 -10 7 -10 24 0 17 -4 31 -10 31 -5 0 -10 14 -10 31 0 17 -4 28 -10 24 -6 -4 -10 6 -10 22 0 16 -7 38 -15 49 -8 10 -15 33 -15 49 0 23 -3 27 -10 15 -7 -11 -10 -7 -10 18 0 20 -4 31 -10 27 -6 -4 -10 6 -10 24 0 16 -5 31 -11 33 -5 2 -13 23 -16 47 -4 28 -9 38 -14 29 -6 -8 -9 -2 -9 20 0 20 -4 31 -10 27 -6 -4 -10 7 -10 25 0 18 -4 29 -10 25 -6 -4 -10 5 -10 19 0 14 -4 26 -10 26 -5 0 -13 18 -16 40 -4 22 -10 37 -15 34 -5 -3 -9 6 -9 20 0 14 -4 26 -10 26 -5 0 -10 9 -10 20 0 11 -4 20 -10 20 -5 0 -10 9 -10 21 0 11 -7 27 -15 35 -8 9 -15 26 -15 40 0 13 -4 24 -10 24 -5 0 -10 9 -10 21 0 11 -4 17 -10 14 -6 -4 -10 7 -10 27 0 25 -3 29 -10 18 -8 -12 -10 -10 -10 10 0 14 -7 34 -15 44 -8 11 -15 31 -15 45 0 21 -2 23 -10 11 -7 -11 -10 -6 -10 20 0 26 -3 31 -10 20 -8 -12 -10 -9 -10 13 0 15 -4 27 -10 27 -5 0 -10 9 -10 20 0 11 -5 20 -11 20 -5 0 -7 5 -4 10 3 6 1 10 -4 10 -6 0 -11 12 -11 26 0 14 -4 23 -10 19 -6 -4 -10 5 -10 20 0 15 -4 24 -10 20 -5 -3 -10 3 -10 14 0 12 -4 21 -9 21 -5 0 -12 16 -15 35 -4 20 -11 33 -17 30 -5 -4 -9 6 -9 22 0 22 -2 25 -10 13 -8 -12 -10 -11 -10 8 0 12 -4 22 -10 22 -5 0 -10 7 -10 15 0 8 -4 15 -10 15 -5 0 -12 16 -16 35 -3 19 -10 35 -15 35 -5 0 -9 9 -9 21 0 11 -4 17 -10 14 -6 -4 -10 6 -10 22 0 22 -2 25 -10 13 -8 -12 -10 -9 -10 13 0 15 -4 27 -10 27 -5 0 -12 11 -16 25 -3 14 -10 25 -15 25 -5 0 -9 9 -9 21 0 11 -4 17 -10 14 -6 -3 -10 4 -10 17 0 19 -9 13 -55 -38 -31 -35 -75 -72 -102 -85 -44 -21 -61 -24 -188 -23 -149 0 -181 5 -474 80 -256 66 -374 85 -521 85 -119 0 -144 -3 -209 -25 -115 -39 -187 -108 -232 -223 -20 -52 -23 -76 -23 -218 -1 -118 4 -184 18 -250 23 -115 79 -313 99 -351 26 -51 98 -113 157 -135 70 -27 224 -29 320 -5 146 37 325 125 406 198 61 56 103 71 179 62 219 -27 465 -163 681 -379 119 -119 180 -195 256 -319 74 -123 90 -174 86 -281 -3 -79 -7 -98 -36 -154 -78 -150 -195 -261 -541 -511 -574 -415 -807 -638 -992 -948 -92 -155 -139 -219 -211 -288 -73 -70 -119 -100 -203 -135 -52 -21 -76 -24 -180 -24 -156 0 -225 21 -435 130 -76 40 -270 175 -374 260 -49 40 -319 268 -366 308 -14 12 -47 40 -75 62 -204 161 -425 393 -606 635 -180 242 -207 281 -439 630 -155 232 -248 368 -365 530 -11 15 -45 65 -77 112 -128 193 -205 267 -276 268 -67 0 -165 -75 -183 -143 -20 -76 21 -257 111 -481 90 -226 150 -355 368 -786 101 -201 188 -369 192 -375 4 -5 38 -68 75 -140 37 -71 85 -161 105 -200 114 -213 248 -476 285 -560 97 -220 141 -269 337 -379 163 -91 482 -175 803 -211 231 -26 347 -58 492 -137 223 -122 333 -289 335 -508 0 -89 -17 -149 -70 -249 -34 -65 -143 -227 -179 -266 -10 -11 -40 -47 -67 -80 -27 -33 -144 -156 -260 -273 -175 -177 -278 -276 -562 -537 -6 -5 -48 -44 -94 -85 -46 -41 -88 -80 -94 -85 -6 -6 -91 -83 -188 -173 -258 -237 -322 -313 -354 -422 -19 -65 -22 -377 -4 -513 6 -45 15 -118 20 -162 10 -84 45 -330 60 -425 64 -399 90 -598 90 -698 0 -121 -15 -161 -108 -284 -77 -101 -140 -165 -342 -351 -223 -204 -467 -448 -508 -509 -63 -92 -81 -140 -92 -244 -14 -124 -50 -266 -90 -359 -5 -11 -23 -54 -40 -95 -32 -74 -139 -292 -177 -360 -191 -336 -578 -906 -818 -1205 -245 -304 -404 -425 -656 -498 -214 -62 -302 -71 -689 -72 l-335 0 -59 30 c-122 62 -200 198 -256 446 -30 135 -37 167 -49 229 -11 51 -43 201 -61 280 -5 19 -18 73 -30 120 -22 87 -63 256 -100 415 -87 369 -155 602 -240 814 -83 210 -165 349 -285 486 -146 166 -185 249 -237 500 -16 80 -16 499 0 630 13 99 16 123 47 320 17 108 16 102 76 405 54 274 68 375 69 501 0 152 -31 356 -81 539 -37 130 -136 419 -175 508 -9 20 -20 46 -24 57 -8 20 -150 361 -177 425 -60 141 -139 283 -196 350 -111 132 -277 237 -443 279 -245 63 -508 54 -934 -30 -25 -5 -90 -13 -145 -19 -90 -8 -176 -18 -475 -51 -614 -68 -1164 -94 -1462 -70 -297 24 -348 44 -608 234 -305 224 -428 432 -504 852 -32 176 -41 323 -41 660 0 371 14 574 56 820 39 227 119 524 192 720 9 22 27 74 42 115 15 41 30 84 35 95 9 21 138 362 170 450 33 88 87 247 124 361 145 451 356 703 826 986 41 25 183 105 315 178 132 73 259 146 282 162 23 15 44 28 48 28 11 0 115 69 310 205 218 152 323 210 467 258 266 89 495 99 873 38 70 -11 362 -67 420 -81 41 -9 111 -22 221 -40 33 -6 159 -17 280 -25 121 -8 246 -21 277 -29 96 -25 195 -84 273 -161 90 -88 129 -149 253 -393 169 -330 214 -370 471 -417 238 -44 315 -38 531 37 l154 53 135 -1 c81 -1 194 -10 285 -23 388 -58 527 -71 742 -71 493 0 870 134 1199 427 185 165 379 411 452 573 55 122 67 175 66 305 -1 105 -4 129 -28 194 -69 183 -157 301 -493 651 -258 269 -306 320 -368 395 -94 113 -110 130 -195 216 -106 107 -152 133 -240 134 -86 0 -112 -14 -262 -142 -213 -182 -301 -232 -494 -282 -61 -16 -306 -14 -394 4 -190 38 -323 82 -550 182 -292 130 -367 160 -560 223 -254 83 -337 100 -494 100 -258 0 -361 -71 -629 -430 -308 -414 -465 -563 -729 -696 -330 -166 -722 -259 -1194 -284 -280 -15 -623 5 -794 45 -14 4 -45 11 -70 17 -80 19 -194 59 -252 90 -230 122 -257 380 -78 748 61 126 149 249 265 368 181 188 352 282 511 282 49 0 160 19 221 38 79 25 161 79 244 162 73 72 93 100 132 180 73 151 88 218 94 410 4 142 1 181 -18 280 -50 260 -30 499 72 855 5 17 21 71 35 120 54 188 153 473 259 750 30 77 57 148 61 158 6 15 -2 17 -86 17 -50 0 -89 -4 -86 -9z"/><path d="M29900 8345 l0 -6185 -6185 0 -6185 0 0 -1080 0 -1080 7265 0 7265 0 0 7265 0 7265 -1080 0 -1080 0 0 -6185z"/></g></svg>
